<?xml version="1.0" standalone="no"?>
<!DOCTYPE svg PUBLIC "-//W3C//DTD SVG 20010904//EN"
 "http://www.w3.org/TR/2001/REC-SVG-20010904/DTD/svg10.dtd">
<svg version="1.0" xmlns="http://www.w3.org/2000/svg"
 width="24" height="24" viewBox="0 0 512.000000 512.000000"
 preserveAspectRatio="xMidYMid meet">

<g transform="translate(0.000000,512.000000) scale(0.100000,-0.100000)"
fill="#000000" stroke="none">
<path d="M1230 4347 c-163 -55 -283 -182 -325 -342 -13 -52 -15 -232 -15
-1445 0 -1515 -3 -1441 58 -1554 60 -113 196 -216 322 -245 74 -17 191 -13
261 9 37 11 189 90 354 183 160 90 700 394 1200 677 501 282 931 529 957 548
254 191 247 598 -14 775 -29 20 -588 338 -1243 707 -785 443 -1212 677 -1254
690 -89 28 -215 27 -301 -3z m287 -221 c29 -14 575 -321 1215 -681 1272 -717
1240 -697 1272 -805 20 -67 20 -93 0 -160 -32 -108 0 -88 -1272 -805 -640
-360 -1187 -667 -1215 -682 -43 -23 -65 -28 -128 -28 -64 0 -84 4 -134 30 -37
19 -72 46 -92 73 -67 88 -64 4 -61 1513 l3 1365 30 59 c17 32 47 71 67 88 88
71 215 84 315 33z"/>
<path d="M4421 4354 c-54 -38 -51 51 -51 -1794 0 -1845 -3 -1756 51 -1794 30
-21 88 -21 118 0 54 38 51 -51 51 1794 0 1845 3 1756 -51 1794 -13 9 -39 16
-59 16 -20 0 -46 -7 -59 -16z"/>
</g>
</svg>
