<?xml version="1.0" standalone="no"?>
<!DOCTYPE svg PUBLIC "-//W3C//DTD SVG 20010904//EN"
 "http://www.w3.org/TR/2001/REC-SVG-20010904/DTD/svg10.dtd">
<svg version="1.0" xmlns="http://www.w3.org/2000/svg"
 width="24" height="24" viewBox="0 0 50.000000 50.000000"
 preserveAspectRatio="xMidYMid meet">

<g transform="translate(0.000000,50.000000) scale(0.100000,-0.100000)"
fill="#000000" stroke="none">
<path d="M120 250 l0 -170 50 0 50 0 0 170 0 170 -50 0 -50 0 0 -170z m80 0
l0 -150 -30 0 -30 0 0 150 0 150 30 0 30 0 0 -150z"/>
<path d="M280 250 l0 -170 50 0 50 0 0 170 0 170 -50 0 -50 0 0 -170z m80 0
l0 -150 -30 0 -30 0 0 150 0 150 30 0 30 0 0 -150z"/>
</g>
</svg>
