<?xml version="1.0" standalone="no"?>
<!DOCTYPE svg PUBLIC "-//W3C//DTD SVG 20010904//EN"
 "http://www.w3.org/TR/2001/REC-SVG-20010904/DTD/svg10.dtd">
<svg version="1.0" xmlns="http://www.w3.org/2000/svg"
 width="24" height="24" viewBox="0 0 512.000000 512.000000"
 preserveAspectRatio="xMidYMid meet">

<g transform="translate(0.000000,512.000000) scale(0.100000,-0.100000)"
fill="#ffffff" stroke="#ffffff">
<path d="M1385 4266 c-67 -29 -105 -105 -90 -183 6 -34 93 -125 768 -800 l762
-763 -762 -762 c-827 -829 -786 -781 -768 -875 9 -49 69 -109 118 -118 94 -18
40 -66 949 843 743 744 837 841 843 874 18 95 65 41 -833 942 -481 482 -840
834 -859 842 -40 17 -89 17 -128 0z"/>
</g>
</svg>
