<svg xmlns="http://www.w3.org/2000/svg" width="24" height="24" viewBox="0 0 100 100" id="volume"><g><path d="M90 50.00000000000001c0 8.6-2.5 16.9-7.3 24.1-.4.6-1 .9-1.7.9-.4 0-.8-.1-1.1-.3-.9-.6-1.2-1.8-.6-2.8C83.7 65.4 86 57.8 86 50c0-7.8-2.3-15.3-6.6-21.9-.6-.9-.4-2.2.6-2.8.9-.6 2.2-.3 2.8.6C87.5 33.1 90 41.4 90 50zm-10.2 0c0 5.8-1.5 11.6-4.4 16.8-.4.6-1 1-1.7 1-.3 0-.7-.1-1-.3-1-.5-1.3-1.8-.8-2.7 2.6-4.5 3.9-9.6 3.9-14.8 0-5.2-1.3-10.3-3.9-14.8-.5-1-.2-2.2.8-2.7s2.2-.2 2.7.7c2.9 5.2 4.4 11 4.4 16.8zm-10.2 0c0 3.2-.6 6.2-1.8 9.1-.3.8-1.1 1.2-1.8 1.2-.2 0-.5 0-.8-.1-1-.4-1.5-1.6-1.1-2.6 1-2.4 1.5-4.9 1.5-7.6s-.5-5.2-1.5-7.6c-.4-1 .1-2.2 1.1-2.6 1-.4 2.2.1 2.6 1.1 1.2 2.9 1.8 6 1.8 9.1zM58 16v68c0 .8-.5 1.5-1.2 1.8-.3.1-.5.2-.8.2-.5 0-1-.2-1.4-.6L36.2 67H12c-1.1 0-2-.9-2-2V35c0-1.1.9-2 2-2h24.2l18.4-18.4c.6-.6 1.4-.7 2.2-.4.7.3 1.2 1 1.2 1.8zM35 37H14v26h21V37zm19-16.2l-15 15v28.3l15 15V20.8z"></path></g><g><path fill="#00F" d="M524-650v1684h-1784V-650H524m8-8h-1800v1700H532V-658z"></path></g></svg>