<?xml version="1.0" standalone="no"?>
<!DOCTYPE svg PUBLIC "-//W3C//DTD SVG 20010904//EN"
 "http://www.w3.org/TR/2001/REC-SVG-20010904/DTD/svg10.dtd">
<svg version="1.0" xmlns="http://www.w3.org/2000/svg"
 width="24" height="24" viewBox="0 0 512.000000 512.000000"
 preserveAspectRatio="xMidYMid meet">

<g transform="translate(0.000000,512.000000) scale(0.100000,-0.100000)"
fill="#000000" stroke="none">
<path d="M3300 4705 c-894 -228 -1626 -414 -1627 -414 -2 -1 -3 -613 -3 -1361
l0 -1360 -62 46 c-73 53 -167 102 -255 132 -158 54 -379 55 -543 3 -296 -95
-520 -330 -602 -631 -19 -72 -23 -108 -22 -230 1 -127 4 -156 28 -233 96 -318
325 -542 641 -628 110 -30 316 -33 425 -5 273 70 499 255 611 501 15 35 39 96
51 137 l23 73 3 1170 c1 643 6 1173 10 1177 5 5 2644 678 2659 678 2 0 3 -331
3 -735 l0 -735 -51 40 c-74 59 -162 105 -265 139 -470 158 -972 -97 -1133
-576 -55 -163 -55 -383 0 -545 106 -316 370 -549 689 -608 88 -17 259 -15 345
3 331 70 593 318 687 652 l23 80 3 1823 c1 1002 -1 1822 -5 1821 -5 -1 -739
-187 -1633 -414z m1340 -304 l0 -328 -117 -31 c-287 -75 -2533 -642 -2542
-642 -8 0 -11 100 -11 328 l0 329 603 153 c331 84 926 235 1322 335 396 101
726 184 733 184 9 1 12 -71 12 -328z m-410 -2217 c189 -59 339 -221 390 -420
49 -190 -2 -395 -134 -541 -72 -79 -150 -130 -254 -166 -165 -57 -364 -32
-509 63 -314 206 -366 636 -109 907 163 172 386 229 616 157z m-3028 -705 c29
-6 91 -29 137 -51 142 -68 253 -196 307 -358 28 -83 26 -262 -3 -355 -89 -284
-399 -465 -686 -401 -219 49 -378 195 -453 416 -29 85 -26 252 5 349 30 91
104 205 173 265 60 52 169 110 248 130 66 18 199 20 272 5z"/>
</g>
</svg>
