<?xml version="1.0" standalone="no"?>
<!DOCTYPE svg PUBLIC "-//W3C//DTD SVG 20010904//EN"
 "http://www.w3.org/TR/2001/REC-SVG-20010904/DTD/svg10.dtd">
<svg version="1.0" xmlns="http://www.w3.org/2000/svg"
 width="24" height="24" viewBox="0 0 256.000000 256.000000"
 preserveAspectRatio="xMidYMid meet">

<g transform="translate(0.000000,256.000000) scale(0.100000,-0.100000)"
fill="#000000" stroke="none">
<path d="M2073 2153 l-173 -177 0 130 c0 118 -2 133 -20 149 -17 15 -24 16
-45 7 -14 -7 -204 -128 -423 -269 l-396 -258 -163 -1 c-117 0 -166 -4 -177
-13 -14 -12 -16 -66 -16 -441 0 -469 -2 -451 60 -454 16 0 30 -3 30 -6 0 -2
-115 -120 -255 -260 -174 -174 -255 -263 -255 -277 0 -27 25 -53 51 -53 13 0
125 107 316 300 l296 301 58 -4 c56 -4 68 -11 453 -261 218 -141 407 -261 421
-268 21 -9 28 -8 45 7 20 18 20 30 20 774 l0 756 210 211 c136 137 210 219
210 232 0 27 -26 52 -53 52 -15 1 -73 -52 -194 -177z m-273 -156 l0 -122 -358
-358 -359 -359 1 252 1 252 350 228 c193 126 353 229 358 229 4 1 7 -54 7
-122z m-4 -1554 c-2 -2 -163 99 -357 225 l-353 229 -2 58 -1 58 356 360 356
359 3 -643 c1 -353 0 -644 -2 -646z m-810 902 l1 -290 -68 -68 c-65 -66 -68
-68 -110 -64 l-44 4 -3 344 c-1 189 0 349 2 355 3 8 40 11 113 10 l108 -1 1
-290z"/>
</g>
</svg>
